<svg xmlns="http://www.w3.org/2000/svg" xmlns:xlink="http://www.w3.org/1999/xlink" width="500" zoomAndPan="magnify" viewBox="0 0 375 374.999991" height="500" preserveAspectRatio="xMidYMid meet" version="1.0"><defs><clipPath id="3ad71e1999"><path d="M 41.640625 86 L 73 86 L 73 123 L 41.640625 123 Z M 41.640625 86 " clip-rule="nonzero"/></clipPath><clipPath id="10d5defff3"><path d="M 313 169 L 337.140625 169 L 337.140625 194 L 313 194 Z M 313 169 " clip-rule="nonzero"/></clipPath><clipPath id="651111700e"><path d="M 83 21.75 L 249 21.75 L 249 123 L 83 123 Z M 83 21.75 " clip-rule="nonzero"/></clipPath><clipPath id="b90e54afb0"><path d="M 230 202 L 337.140625 202 L 337.140625 265 L 230 265 Z M 230 202 " clip-rule="nonzero"/></clipPath><clipPath id="7579b6a239"><path d="M 41.640625 128 L 302 128 L 302 353.25 L 41.640625 353.25 Z M 41.640625 128 " clip-rule="nonzero"/></clipPath></defs><path fill="#000000" d="M 174.613281 110.578125 L 159.839844 110.578125 L 159.839844 122.410156 L 182.96875 122.410156 C 183.300781 121.46875 183.480469 120.472656 183.480469 119.453125 C 183.480469 114.558594 179.503906 110.578125 174.613281 110.578125 Z M 174.613281 110.578125 " fill-opacity="1" fill-rule="nonzero"/><path fill="#000000" d="M 174.613281 80.992188 L 159.839844 80.992188 L 159.839844 98.742188 L 174.613281 98.742188 C 179.503906 98.742188 183.480469 94.761719 183.480469 89.867188 C 183.480469 84.972656 179.503906 80.992188 174.613281 80.992188 Z M 174.613281 80.992188 " fill-opacity="1" fill-rule="nonzero"/><g clip-path="url(#3ad71e1999)"><path fill="#000000" d="M 57.863281 122.394531 C 58.132812 122.40625 72.863281 122.410156 72.863281 122.410156 C 71.757812 116.582031 71.1875 110.640625 71.1875 104.660156 C 71.1875 98.59375 71.769531 92.660156 72.863281 86.910156 L 59.371094 86.910156 C 49.59375 86.910156 41.640625 94.871094 41.640625 104.660156 C 41.640625 104.78125 41.691406 106.484375 41.691406 106.484375 C 42.503906 115.175781 49.4375 122.007812 57.863281 122.394531 Z M 57.863281 122.394531 " fill-opacity="1" fill-rule="nonzero"/></g><path fill="#000000" d="M 222.128906 122.410156 C 223.925781 116.691406 224.847656 110.742188 224.847656 104.660156 C 224.847656 72.03125 198.335938 45.488281 165.75 45.488281 C 133.160156 45.488281 106.648438 72.03125 106.648438 104.660156 C 106.648438 110.726562 107.570312 116.6875 109.367188 122.410156 L 148.019531 122.410156 L 148.019531 80.992188 L 142.109375 80.992188 C 138.84375 80.992188 136.199219 78.34375 136.199219 75.074219 C 136.199219 71.804688 138.84375 69.15625 142.109375 69.15625 L 150.382812 69.15625 L 150.382812 65.605469 C 150.382812 62.339844 153.03125 59.6875 156.292969 59.6875 C 159.558594 59.6875 162.203125 62.339844 162.203125 65.605469 L 162.203125 69.15625 L 169.296875 69.15625 L 169.296875 65.605469 C 169.296875 62.339844 171.941406 59.6875 175.207031 59.6875 C 178.46875 59.6875 181.117188 62.339844 181.117188 65.605469 L 181.117188 70.210938 C 189.34375 72.945312 195.300781 80.71875 195.300781 89.867188 C 195.300781 95.65625 192.910156 100.898438 189.070312 104.660156 C 192.910156 108.421875 195.300781 113.660156 195.300781 119.453125 C 195.300781 120.449219 195.226562 121.4375 195.085938 122.410156 Z M 222.128906 122.410156 " fill-opacity="1" fill-rule="nonzero"/><g clip-path="url(#10d5defff3)"><path fill="#000000" d="M 337.140625 181.585938 C 337.140625 175.058594 331.835938 169.75 325.320312 169.75 L 313.5 169.75 L 313.5 193.417969 L 325.320312 193.417969 C 331.835938 193.417969 337.140625 188.109375 337.140625 181.585938 Z M 337.140625 181.585938 " fill-opacity="1" fill-rule="nonzero"/></g><g clip-path="url(#651111700e)"><path fill="#000000" d="M 97.074219 122.410156 C 95.589844 116.636719 94.828125 110.6875 94.828125 104.660156 C 94.828125 65.507812 126.644531 33.652344 165.75 33.652344 C 204.855469 33.652344 236.667969 65.507812 236.667969 104.660156 C 236.667969 110.703125 235.902344 116.644531 234.417969 122.410156 L 246.585938 122.410156 C 247.847656 116.613281 248.488281 110.652344 248.488281 104.660156 C 248.488281 58.980469 211.371094 21.820312 165.75 21.820312 C 120.125 21.820312 83.007812 58.980469 83.007812 104.660156 C 83.007812 110.660156 83.660156 116.609375 84.925781 122.410156 Z M 97.074219 122.410156 " fill-opacity="1" fill-rule="nonzero"/></g><path fill="#000000" d="M 183.480469 240.757812 C 183.480469 241.535156 183.402344 242.304688 183.253906 243.066406 C 183.101562 243.828125 182.875 244.566406 182.578125 245.285156 C 182.28125 246.003906 181.917969 246.6875 181.488281 247.332031 C 181.054688 247.976562 180.566406 248.574219 180.015625 249.125 C 179.46875 249.675781 178.871094 250.164062 178.226562 250.597656 C 177.582031 251.027344 176.898438 251.394531 176.183594 251.691406 C 175.464844 251.988281 174.726562 252.210938 173.964844 252.363281 C 173.203125 252.515625 172.433594 252.589844 171.660156 252.589844 C 170.882812 252.589844 170.113281 252.515625 169.351562 252.363281 C 168.59375 252.210938 167.851562 251.988281 167.136719 251.691406 C 166.417969 251.394531 165.738281 251.027344 165.09375 250.597656 C 164.445312 250.164062 163.851562 249.675781 163.300781 249.125 C 162.753906 248.574219 162.261719 247.976562 161.832031 247.332031 C 161.398438 246.6875 161.035156 246.003906 160.738281 245.285156 C 160.441406 244.566406 160.21875 243.828125 160.066406 243.066406 C 159.914062 242.304688 159.839844 241.535156 159.839844 240.757812 C 159.839844 239.980469 159.914062 239.210938 160.066406 238.449219 C 160.21875 237.6875 160.441406 236.945312 160.738281 236.226562 C 161.035156 235.511719 161.398438 234.828125 161.832031 234.183594 C 162.261719 233.535156 162.753906 232.9375 163.300781 232.386719 C 163.851562 231.839844 164.445312 231.347656 165.09375 230.917969 C 165.738281 230.484375 166.417969 230.121094 167.136719 229.824219 C 167.851562 229.527344 168.59375 229.300781 169.351562 229.148438 C 170.113281 229 170.882812 228.921875 171.660156 228.921875 C 172.433594 228.921875 173.203125 229 173.964844 229.148438 C 174.726562 229.300781 175.464844 229.527344 176.183594 229.824219 C 176.898438 230.121094 177.582031 230.484375 178.226562 230.917969 C 178.871094 231.347656 179.46875 231.839844 180.015625 232.386719 C 180.566406 232.9375 181.054688 233.535156 181.488281 234.183594 C 181.917969 234.828125 182.28125 235.511719 182.578125 236.226562 C 182.875 236.945312 183.101562 237.6875 183.253906 238.449219 C 183.402344 239.210938 183.480469 239.980469 183.480469 240.757812 Z M 183.480469 240.757812 " fill-opacity="1" fill-rule="nonzero"/><path fill="#000000" d="M 183.480469 181.585938 C 183.480469 182.363281 183.402344 183.132812 183.253906 183.894531 C 183.101562 184.65625 182.875 185.394531 182.578125 186.113281 C 182.28125 186.832031 181.917969 187.511719 181.488281 188.160156 C 181.054688 188.804688 180.566406 189.402344 180.015625 189.953125 C 179.46875 190.503906 178.871094 190.992188 178.226562 191.425781 C 177.582031 191.855469 176.898438 192.222656 176.183594 192.519531 C 175.464844 192.816406 174.726562 193.039062 173.964844 193.191406 C 173.203125 193.34375 172.433594 193.417969 171.660156 193.417969 C 170.882812 193.417969 170.113281 193.34375 169.351562 193.191406 C 168.59375 193.039062 167.851562 192.816406 167.136719 192.519531 C 166.417969 192.222656 165.738281 191.855469 165.09375 191.425781 C 164.445312 190.992188 163.851562 190.503906 163.300781 189.953125 C 162.753906 189.402344 162.261719 188.804688 161.832031 188.160156 C 161.398438 187.511719 161.035156 186.832031 160.738281 186.113281 C 160.441406 185.394531 160.21875 184.65625 160.066406 183.894531 C 159.914062 183.132812 159.839844 182.363281 159.839844 181.585938 C 159.839844 180.808594 159.914062 180.039062 160.066406 179.277344 C 160.21875 178.511719 160.441406 177.773438 160.738281 177.054688 C 161.035156 176.335938 161.398438 175.65625 161.832031 175.007812 C 162.261719 174.363281 162.753906 173.765625 163.300781 173.214844 C 163.851562 172.667969 164.445312 172.175781 165.09375 171.746094 C 165.738281 171.3125 166.417969 170.949219 167.136719 170.652344 C 167.851562 170.351562 168.59375 170.128906 169.351562 169.976562 C 170.113281 169.824219 170.882812 169.75 171.660156 169.75 C 172.433594 169.75 173.203125 169.824219 173.964844 169.976562 C 174.726562 170.128906 175.464844 170.351562 176.183594 170.652344 C 176.898438 170.949219 177.582031 171.3125 178.226562 171.746094 C 178.871094 172.175781 179.46875 172.667969 180.015625 173.214844 C 180.566406 173.765625 181.054688 174.363281 181.488281 175.007812 C 181.917969 175.65625 182.28125 176.335938 182.578125 177.054688 C 182.875 177.773438 183.101562 178.511719 183.253906 179.277344 C 183.402344 180.039062 183.480469 180.808594 183.480469 181.585938 Z M 183.480469 181.585938 " fill-opacity="1" fill-rule="nonzero"/><path fill="#000000" d="M 260.308594 86.910156 L 258.636719 86.910156 C 259.730469 92.660156 260.308594 98.59375 260.308594 104.660156 C 260.308594 110.898438 259.691406 117.109375 258.488281 123.183594 C 276.289062 125.945312 291.726562 135.96875 301.679688 150.121094 L 301.679688 128.328125 C 301.679688 105.492188 283.121094 86.910156 260.308594 86.910156 Z M 260.308594 86.910156 " fill-opacity="1" fill-rule="nonzero"/><g clip-path="url(#b90e54afb0)"><path fill="#000000" d="M 325.320312 205.253906 L 260.308594 205.253906 C 244.015625 205.253906 230.757812 218.527344 230.757812 234.839844 C 230.757812 251.152344 244.015625 264.425781 260.308594 264.425781 L 314.238281 264.425781 L 314.238281 264.40625 C 326.929688 264.015625 337.140625 253.558594 337.140625 240.757812 L 337.140625 202.070312 C 333.660156 204.089844 329.625 205.253906 325.320312 205.253906 Z M 260.308594 247.9375 C 253.09375 247.9375 247.226562 242.0625 247.226562 234.839844 C 247.226562 227.617188 253.09375 221.742188 260.308594 221.742188 C 267.523438 221.742188 273.390625 227.617188 273.390625 234.839844 C 273.390625 242.0625 267.523438 247.9375 260.308594 247.9375 Z M 260.308594 247.9375 " fill-opacity="1" fill-rule="nonzero"/></g><g clip-path="url(#7579b6a239)"><path fill="#000000" d="M 248.488281 134.246094 C 248.488281 134.246094 57.769531 134.234375 57.320312 134.214844 C 51.492188 133.949219 46.089844 131.890625 41.640625 128.558594 L 41.640625 211.171875 L 94.828125 211.171875 L 94.828125 181.585938 C 94.828125 178.316406 97.476562 175.667969 100.738281 175.667969 L 148.769531 175.667969 C 151.398438 165.46875 160.664062 157.914062 171.660156 157.914062 C 184.695312 157.914062 195.300781 168.535156 195.300781 181.585938 C 195.300781 194.636719 184.695312 205.253906 171.660156 205.253906 C 160.664062 205.253906 151.398438 197.699219 148.769531 187.5 L 106.648438 187.5 L 106.648438 217.089844 C 106.648438 220.355469 104.003906 223.003906 100.738281 223.003906 L 41.640625 223.003906 L 41.640625 234.839844 L 148.769531 234.839844 C 151.398438 224.644531 160.664062 217.089844 171.660156 217.089844 C 184.695312 217.089844 195.300781 227.707031 195.300781 240.757812 C 195.300781 253.808594 184.695312 264.425781 171.660156 264.425781 C 160.664062 264.425781 151.398438 256.871094 148.769531 246.675781 L 41.640625 246.675781 L 41.640625 258.507812 L 100.738281 258.507812 C 104.003906 258.507812 106.648438 261.15625 106.648438 264.425781 L 106.648438 288.09375 L 148.769531 288.09375 C 151.398438 277.898438 160.664062 270.34375 171.660156 270.34375 C 184.695312 270.34375 195.300781 280.960938 195.300781 294.011719 C 195.300781 307.0625 184.695312 317.679688 171.660156 317.679688 C 160.664062 317.679688 151.398438 310.125 148.769531 299.929688 L 100.738281 299.929688 C 97.476562 299.929688 94.828125 297.28125 94.828125 294.011719 L 94.828125 270.34375 L 41.640625 270.34375 L 41.640625 299.929688 C 41.640625 329.292969 65.5 353.183594 94.828125 353.183594 L 248.488281 353.183594 C 277.820312 353.183594 301.679688 329.292969 301.679688 299.929688 L 301.679688 276.261719 L 260.308594 276.261719 C 237.496094 276.261719 218.9375 257.679688 218.9375 234.839844 C 218.9375 212 237.496094 193.417969 260.308594 193.417969 L 301.679688 193.417969 L 301.679688 187.5 C 301.679688 158.136719 277.820312 134.246094 248.488281 134.246094 Z M 248.488281 134.246094 " fill-opacity="1" fill-rule="nonzero"/></g><path fill="#000000" d="M 183.480469 294.011719 C 183.480469 294.789062 183.402344 295.558594 183.253906 296.320312 C 183.101562 297.082031 182.875 297.824219 182.578125 298.539062 C 182.28125 299.257812 181.917969 299.941406 181.488281 300.585938 C 181.054688 301.234375 180.566406 301.832031 180.015625 302.378906 C 179.46875 302.929688 178.871094 303.421875 178.226562 303.851562 C 177.582031 304.285156 176.898438 304.648438 176.183594 304.945312 C 175.464844 305.242188 174.726562 305.46875 173.964844 305.617188 C 173.203125 305.769531 172.433594 305.847656 171.660156 305.847656 C 170.882812 305.847656 170.113281 305.769531 169.351562 305.617188 C 168.59375 305.46875 167.851562 305.242188 167.136719 304.945312 C 166.417969 304.648438 165.738281 304.285156 165.09375 303.851562 C 164.445312 303.421875 163.851562 302.929688 163.300781 302.378906 C 162.753906 301.832031 162.261719 301.234375 161.832031 300.585938 C 161.398438 299.941406 161.035156 299.257812 160.738281 298.539062 C 160.441406 297.824219 160.21875 297.082031 160.066406 296.320312 C 159.914062 295.558594 159.839844 294.789062 159.839844 294.011719 C 159.839844 293.234375 159.914062 292.464844 160.066406 291.703125 C 160.21875 290.941406 160.441406 290.199219 160.738281 289.484375 C 161.035156 288.765625 161.398438 288.082031 161.832031 287.4375 C 162.261719 286.789062 162.753906 286.191406 163.300781 285.644531 C 163.851562 285.09375 164.445312 284.605469 165.09375 284.171875 C 165.738281 283.742188 166.417969 283.375 167.136719 283.078125 C 167.851562 282.78125 168.59375 282.554688 169.351562 282.40625 C 170.113281 282.253906 170.882812 282.175781 171.660156 282.175781 C 172.433594 282.175781 173.203125 282.253906 173.964844 282.40625 C 174.726562 282.554688 175.464844 282.78125 176.183594 283.078125 C 176.898438 283.375 177.582031 283.742188 178.226562 284.171875 C 178.871094 284.605469 179.46875 285.09375 180.015625 285.644531 C 180.566406 286.191406 181.054688 286.789062 181.488281 287.4375 C 181.917969 288.082031 182.28125 288.765625 182.578125 289.484375 C 182.875 290.199219 183.101562 290.941406 183.253906 291.703125 C 183.402344 292.464844 183.480469 293.234375 183.480469 294.011719 Z M 183.480469 294.011719 " fill-opacity="1" fill-rule="nonzero"/></svg>