<svg xmlns="http://www.w3.org/2000/svg" xmlns:xlink="http://www.w3.org/1999/xlink" width="500" zoomAndPan="magnify" viewBox="0 0 375 374.999991" height="500" preserveAspectRatio="xMidYMid meet" version="1.0"><defs><clipPath id="362faac866"><path d="M 38.492188 21.386719 L 337.742188 21.386719 L 337.742188 353.636719 L 38.492188 353.636719 Z M 38.492188 21.386719 " clip-rule="nonzero"/></clipPath></defs><g clip-path="url(#362faac866)"><path fill="#000000" d="M 315.578125 159.824219 L 304.492188 159.824219 L 304.492188 132.136719 C 304.492188 104.65625 282.121094 82.296875 254.617188 82.296875 L 250.179688 82.296875 C 238.515625 46.960938 205.167969 21.386719 165.953125 21.386719 C 126.734375 21.386719 93.386719 46.960938 81.722656 82.296875 L 66.203125 82.296875 C 50.921875 82.296875 38.492188 94.71875 38.492188 109.984375 C 38.492188 110.101562 38.492188 292.722656 38.492188 292.722656 C 38.492188 326.308594 65.839844 353.636719 99.453125 353.636719 L 243.535156 353.636719 C 277.148438 353.636719 304.492188 326.308594 304.492188 292.722656 L 304.492188 270.574219 C 322.828125 270.574219 337.742188 255.667969 337.742188 237.347656 L 337.742188 181.972656 C 337.742188 169.757812 327.800781 159.824219 315.578125 159.824219 Z M 315.578125 170.898438 C 321.6875 170.898438 326.660156 175.867188 326.660156 181.972656 C 326.660156 188.078125 321.6875 193.046875 315.578125 193.046875 L 304.492188 193.046875 L 304.492188 170.898438 Z M 254.617188 93.371094 C 276.007812 93.371094 293.410156 110.761719 293.410156 132.136719 L 293.410156 152.527344 C 284.078125 139.28125 269.605469 129.90625 252.910156 127.320312 C 254.039062 121.636719 254.617188 115.824219 254.617188 109.984375 C 254.617188 104.308594 254.074219 98.757812 253.050781 93.371094 Z M 165.953125 32.460938 C 208.730469 32.460938 243.535156 67.238281 243.535156 109.984375 C 243.535156 115.59375 242.933594 121.167969 241.75 126.597656 L 230.339844 126.597656 C 231.730469 121.199219 232.453125 115.640625 232.453125 109.984375 C 232.453125 73.34375 202.621094 43.535156 165.953125 43.535156 C 129.285156 43.535156 99.453125 73.34375 99.453125 109.984375 C 99.453125 115.628906 100.164062 121.195312 101.558594 126.597656 L 90.164062 126.597656 C 88.976562 121.167969 88.367188 115.597656 88.367188 109.984375 C 88.367188 67.238281 123.171875 32.460938 165.953125 32.460938 Z M 193.460938 126.597656 C 193.589844 125.6875 193.660156 124.761719 193.660156 123.828125 C 193.660156 118.410156 191.421875 113.503906 187.820312 109.984375 C 191.421875 106.464844 193.660156 101.5625 193.660156 96.140625 C 193.660156 87.582031 188.078125 80.304688 180.359375 77.746094 L 180.359375 73.4375 C 180.359375 70.378906 177.878906 67.898438 174.820312 67.898438 C 171.757812 67.898438 169.277344 70.378906 169.277344 73.4375 L 169.277344 76.761719 L 162.628906 76.761719 L 162.628906 73.4375 C 162.628906 70.378906 160.144531 67.898438 157.085938 67.898438 C 154.023438 67.898438 151.542969 70.378906 151.542969 73.4375 L 151.542969 76.761719 L 143.785156 76.761719 C 140.726562 76.761719 138.242188 79.238281 138.242188 82.296875 C 138.242188 85.355469 140.726562 87.835938 143.785156 87.835938 L 149.328125 87.835938 L 149.328125 126.597656 L 113.082031 126.597656 C 111.398438 121.242188 110.535156 115.660156 110.535156 109.984375 C 110.535156 79.453125 135.394531 54.609375 165.953125 54.609375 C 196.507812 54.609375 221.367188 79.453125 221.367188 109.984375 C 221.367188 115.675781 220.503906 121.246094 218.816406 126.597656 Z M 174.265625 87.835938 C 178.847656 87.835938 182.578125 91.5625 182.578125 96.140625 C 182.578125 100.722656 178.847656 104.449219 174.265625 104.449219 L 160.410156 104.449219 L 160.410156 87.835938 Z M 160.410156 115.523438 L 174.265625 115.523438 C 178.847656 115.523438 182.578125 119.25 182.578125 123.828125 C 182.578125 124.785156 182.410156 125.714844 182.097656 126.597656 L 160.410156 126.597656 Z M 66.203125 93.371094 L 78.855469 93.371094 C 77.828125 98.757812 77.285156 104.308594 77.285156 109.984375 C 77.285156 115.582031 77.820312 121.144531 78.855469 126.597656 C 78.855469 126.597656 65.042969 126.59375 64.789062 126.582031 C 56.886719 126.21875 50.386719 119.828125 49.625 111.691406 C 49.625 111.691406 49.578125 110.097656 49.578125 109.984375 C 49.578125 100.824219 57.035156 93.371094 66.203125 93.371094 Z M 293.410156 292.722656 C 293.410156 320.203125 271.035156 342.558594 243.535156 342.558594 L 99.453125 342.558594 C 71.949219 342.558594 49.578125 320.203125 49.578125 292.722656 L 49.578125 265.035156 L 99.453125 265.035156 L 99.453125 287.183594 C 99.453125 290.242188 101.933594 292.722656 104.992188 292.722656 L 150.027344 292.722656 C 152.496094 302.265625 161.183594 309.335938 171.492188 309.335938 C 183.714844 309.335938 193.660156 299.398438 193.660156 287.183594 C 193.660156 274.972656 183.714844 265.035156 171.492188 265.035156 C 161.183594 265.035156 152.496094 272.105469 150.027344 281.648438 L 110.535156 281.648438 L 110.535156 259.496094 C 110.535156 256.441406 108.054688 253.960938 104.992188 253.960938 L 49.578125 253.960938 L 49.578125 242.886719 L 150.027344 242.886719 C 152.496094 252.429688 161.183594 259.496094 171.492188 259.496094 C 183.714844 259.496094 193.660156 249.5625 193.660156 237.347656 C 193.660156 225.132812 183.714844 215.199219 171.492188 215.199219 C 161.183594 215.199219 152.496094 222.269531 150.027344 231.808594 L 49.578125 231.808594 L 49.578125 220.734375 L 104.992188 220.734375 C 108.054688 220.734375 110.535156 218.257812 110.535156 215.199219 L 110.535156 187.511719 L 150.027344 187.511719 C 152.496094 197.054688 161.183594 204.121094 171.492188 204.121094 C 183.714844 204.121094 193.660156 194.1875 193.660156 181.972656 C 193.660156 169.757812 183.714844 159.824219 171.492188 159.824219 C 161.183594 159.824219 152.496094 166.894531 150.027344 176.433594 L 104.992188 176.433594 C 101.933594 176.433594 99.453125 178.914062 99.453125 181.972656 L 99.453125 209.660156 L 49.578125 209.660156 L 49.578125 132.351562 C 53.75 135.46875 58.816406 137.394531 64.28125 137.644531 C 64.703125 137.664062 243.535156 137.671875 243.535156 137.671875 C 271.035156 137.671875 293.410156 160.03125 293.410156 187.511719 L 293.410156 193.046875 L 254.617188 193.046875 C 233.230469 193.046875 215.828125 210.4375 215.828125 231.808594 C 215.828125 253.183594 233.230469 270.574219 254.617188 270.574219 L 293.410156 270.574219 Z M 160.410156 287.183594 C 160.410156 281.078125 165.382812 276.109375 171.492188 276.109375 C 177.605469 276.109375 182.578125 281.078125 182.578125 287.183594 C 182.578125 293.292969 177.605469 298.261719 171.492188 298.261719 C 165.382812 298.261719 160.410156 293.292969 160.410156 287.183594 Z M 160.410156 237.347656 C 160.410156 231.242188 165.382812 226.273438 171.492188 226.273438 C 177.605469 226.273438 182.578125 231.242188 182.578125 237.347656 C 182.578125 243.453125 177.605469 248.421875 171.492188 248.421875 C 165.382812 248.421875 160.410156 243.453125 160.410156 237.347656 Z M 160.410156 181.972656 C 160.410156 175.867188 165.382812 170.898438 171.492188 170.898438 C 177.605469 170.898438 182.578125 175.867188 182.578125 181.972656 C 182.578125 188.078125 177.605469 193.046875 171.492188 193.046875 C 165.382812 193.046875 160.410156 188.078125 160.410156 181.972656 Z M 254.617188 259.496094 C 239.339844 259.496094 226.910156 247.078125 226.910156 231.808594 C 226.910156 216.542969 239.339844 204.121094 254.617188 204.121094 L 315.578125 204.121094 C 319.613281 204.121094 323.398438 203.035156 326.660156 201.144531 L 326.660156 237.347656 C 326.660156 249.5625 316.714844 259.496094 304.492188 259.496094 Z M 254.617188 259.496094 " fill-opacity="1" fill-rule="nonzero"/></g><path fill="#000000" d="M 235.222656 231.808594 C 235.222656 242.496094 243.925781 251.191406 254.617188 251.191406 C 265.3125 251.191406 274.015625 242.496094 274.015625 231.808594 C 274.015625 221.125 265.3125 212.429688 254.617188 212.429688 C 243.925781 212.429688 235.222656 221.125 235.222656 231.808594 Z M 262.929688 231.808594 C 262.929688 236.390625 259.203125 240.117188 254.617188 240.117188 C 250.035156 240.117188 246.304688 236.390625 246.304688 231.808594 C 246.304688 227.230469 250.035156 223.503906 254.617188 223.503906 C 259.203125 223.503906 262.929688 227.230469 262.929688 231.808594 Z M 262.929688 231.808594 " fill-opacity="1" fill-rule="nonzero"/></svg>